<svg width="59" height="58" viewBox="0 0 59 58" fill="none" xmlns="http://www.w3.org/2000/svg">
<path d="M17.1425 31.1288L49.6693 2.66767C49.6693 2.66767 52.7187 -0.381732 55.7681 2.66767C58.8175 5.71706 55.7681 8.76645 55.7681 8.76645L27.307 41.2933L17.1425 31.1288Z" stroke="white" stroke-width="2" stroke-linejoin="round"/>
<path d="M26.2919 24.0134L34.4235 32.1452" stroke="white" stroke-width="2" stroke-linecap="round" stroke-linejoin="round"/>
<path d="M1.89663 38.2436L17.1436 31.1283L27.3083 41.293L20.193 56.54C20.193 56.54 13.0778 57.5564 6.97895 51.4577C0.880159 45.3588 1.89663 38.2436 1.89663 38.2436Z" stroke="white" stroke-width="2" stroke-linejoin="round"/>
<path d="M3.93 46.3752L11.0453 43.3258" stroke="white" stroke-width="2" stroke-linecap="round" stroke-linejoin="round"/>
<path d="M12.0626 54.5074L14.0955 50.4415" stroke="white" stroke-width="2" stroke-linecap="round" stroke-linejoin="round"/>
<path d="M21.2106 27.5708L25.2764 24.0131L29.3424 20.4554" stroke="white" stroke-width="2" stroke-linejoin="round"/>
<path d="M37.9813 29.0953L34.4236 33.1612L30.8661 37.227" stroke="white" stroke-width="2" stroke-linejoin="round"/>
</svg>
